# xmcd CD database file
#
# Track frame offsets:
#	151
#	31340
#	63987
#	93813
#	126292
#	183512
#	214917
#	247220
#	293136
#
# Disc length: 4378 seconds
#
# Revision: 0
# Processed by: cddbd v1.5PL3 Copyright (c) Steve Scherf et al.
# Submitted via: CDex 1.51
#
DISCID=85111809
DTITLE=Effendi Jazzlab - Réunion
DYEAR=2003
DGENRE=Jazz
TTITLE0=Rémi Bolduc - Mr. Coleman
TTITLE1=François Bourassa - Wayne shorter part I and II
TTITLE2=François Théberge - Mou
TTITLE3=Joel Miller - March question
TTITLE4=Thom Gossage - On the bus
TTITLE5=Christine Jensen - Look left
TTITLE6=Alexandre Côté - Inner search 
TTITLE7=Yves Léveillé - Brouillard
TTITLE8=Frank Lozano - Era
EXTD=YEAR: 2003
EXTT0=
EXTT1=
EXTT2=
EXTT3=
EXTT4=
EXTT5=
EXTT6=
EXTT7=
EXTT8=
PLAYORDER=
